<?xml version="1.0" encoding="UTF-8" standalone="no"?>
<svg
   xmlns:dc="http://purl.org/dc/elements/1.1/"
   xmlns:cc="http://creativecommons.org/ns#"
   xmlns:rdf="http://www.w3.org/1999/02/22-rdf-syntax-ns#"
   xmlns:svg="http://www.w3.org/2000/svg"
   xmlns="http://www.w3.org/2000/svg"
   xmlns:sodipodi="http://sodipodi.sourceforge.net/DTD/sodipodi-0.dtd"
   xmlns:inkscape="http://www.inkscape.org/namespaces/inkscape"
   width="22"
   height="22"
   viewBox="0 0 5.8208334 5.8208334"
   version="1.1"
   id="svg8"
   inkscape:version="1.0.1 (3bc2e813f5, 2020-09-07)"
   sodipodi:docname="icon-french.svg">
  <defs
     id="defs2" />
  <sodipodi:namedview
     id="base"
     pagecolor="#000000"
     bordercolor="#666666"
     borderopacity="1.0"
     inkscape:pageopacity="0"
     inkscape:pageshadow="2"
     inkscape:zoom="1"
     inkscape:cx="16.085483"
     inkscape:cy="14.247871"
     inkscape:document-units="px"
     inkscape:current-layer="layer1"
     inkscape:document-rotation="0"
     showgrid="false"
     units="px"
     inkscape:window-width="1920"
     inkscape:window-height="1017"
     inkscape:window-x="-8"
     inkscape:window-y="-8"
     inkscape:window-maximized="1"
     inkscape:snap-global="false"
     inkscape:snap-bbox="true"
     inkscape:bbox-nodes="true">
    <inkscape:grid
       type="xygrid"
       id="grid833" />
  </sodipodi:namedview>
  <metadata
     id="metadata5">
    <rdf:RDF>
      <cc:Work
         rdf:about="">
        <dc:format>image/svg+xml</dc:format>
        <dc:type
           rdf:resource="http://purl.org/dc/dcmitype/StillImage" />
        <dc:title></dc:title>
      </cc:Work>
    </rdf:RDF>
  </metadata>
  <g
     inkscape:label="Layer 1"
     inkscape:groupmode="layer"
     id="layer1">
    <path
       style="fill:#ffffff;fill-opacity:1;stroke:none;stroke-width:0.264583px;stroke-linecap:butt;stroke-linejoin:miter;stroke-opacity:1"
       d="M 1.046928,2.098955 C 3.4033734,1.5449836 5.2916668,1.3807943 5.2916668,1.3807943 c 0,0 0.5273041,-1.00398815 -0.2645833,-1.05833336 C 4.183724,0.26458334 3.0168103,0.28285816 2.0257162,0.85238733 1.6451598,1.0710729 2.0496566,1.2796789 1.492982,1.0520713 1.366314,1.0002805 0.02772795,1.4018448 0.08560555,1.955816 0.21766652,2.4019737 0.50577767,2.1791861 1.046928,2.098955 Z"
       id="path878"
       sodipodi:nodetypes="ccssscc" />
    <path
       style="fill:#ffffff;fill-opacity:1;stroke:none;stroke-width:0.264583px;stroke-linecap:butt;stroke-linejoin:miter;stroke-opacity:1"
       d="M 2.8589489,0.63727078 C 1.9761242,0.43264256 1.4207047,0.08185129 1.5785607,0.32155866 1.7364168,0.56126602 1.9235055,1.0757599 1.9235055,1.0757599 Z"
       id="path880" />
    <path
       id="path882"
       style="opacity:1;fill:#ffffff;fill-opacity:1;stroke:none;stroke-width:0.999999px;stroke-linecap:butt;stroke-linejoin:miter;stroke-opacity:1"
       d="M 18.5 6.8125 C 15.8125 6.8750002 6.1562501 8.4999996 2.71875 10 C 2.7187501 10 2.34375 9.7812499 1.90625 11.875 C 1.4362027 14.124512 2 19 2 19 L 8.84375 19 C 7.5397563 18.013198 5.9403512 16.468299 4.21875 13.949219 C 3.934435 13.533199 4.1445312 13.521484 4.1445312 13.521484 C 4.1445313 13.521484 2.6128689 14.31613 7.21875 11.949219 C 11.71875 9.636719 7.6562509 8.1367188 14.21875 11.886719 C 19.328043 14.806314 19.03125 9.5742184 18.59375 13.636719 C 18.409851 15.34436 16.356318 17.527112 14.548828 19 L 16 19 L 22 19 C 22 19 22.09375 18.5 21.96875 15.8125 C 21.84375 13.125 21.1875 6.7500017 18.5 6.8125 z "
       transform="scale(0.26458334)" />
    <path
       style="fill:none;stroke:#ffffff;stroke-width:0.264583px;stroke-linecap:butt;stroke-linejoin:miter;stroke-opacity:1"
       d="m 3.1643101,5.4435902 c 0.2480469,0 1.6887654,-1.1033227 1.7694011,-1.8520833 C 5.0494664,2.516637 5.1279928,3.9009624 3.7761591,3.128486 2.039831,2.1362985 3.1147007,2.5331735 1.9240758,3.1450224 0.70543637,3.7712677 1.1109521,3.5613573 1.1109521,3.5613573 c 0,0 -0.055851,0.00276 0.019374,0.1128319 1.0956011,1.6031048 2.0339844,1.769401 2.033984,1.769401 z"
       id="path884"
       sodipodi:nodetypes="cssscsc" />
  </g>
</svg>
