<?xml version="1.0" encoding="UTF-8" standalone="no"?>
<svg
   xmlns:dc="http://purl.org/dc/elements/1.1/"
   xmlns:cc="http://creativecommons.org/ns#"
   xmlns:rdf="http://www.w3.org/1999/02/22-rdf-syntax-ns#"
   xmlns:svg="http://www.w3.org/2000/svg"
   xmlns="http://www.w3.org/2000/svg"
   xmlns:sodipodi="http://sodipodi.sourceforge.net/DTD/sodipodi-0.dtd"
   xmlns:inkscape="http://www.inkscape.org/namespaces/inkscape"
   width="22"
   height="22"
   viewBox="0 0 5.8208334 5.8208334"
   version="1.1"
   id="svg8"
   inkscape:version="1.0.1 (3bc2e813f5, 2020-09-07)"
   sodipodi:docname="icon-lock.svg">
  <defs
     id="defs2" />
  <sodipodi:namedview
     id="base"
     pagecolor="#000000"
     bordercolor="#666666"
     borderopacity="1.0"
     inkscape:pageopacity="0"
     inkscape:pageshadow="2"
     inkscape:zoom="1"
     inkscape:cx="14.660723"
     inkscape:cy="12.975506"
     inkscape:document-units="px"
     inkscape:current-layer="layer1"
     inkscape:document-rotation="0"
     showgrid="false"
     units="px"
     inkscape:window-width="1366"
     inkscape:window-height="745"
     inkscape:window-x="-8"
     inkscape:window-y="-8"
     inkscape:window-maximized="1"
     inkscape:snap-bbox="true"
     inkscape:bbox-nodes="true">
    <inkscape:grid
       type="xygrid"
       id="grid833" />
  </sodipodi:namedview>
  <metadata
     id="metadata5">
    <rdf:RDF>
      <cc:Work
         rdf:about="">
        <dc:format>image/svg+xml</dc:format>
        <dc:type
           rdf:resource="http://purl.org/dc/dcmitype/StillImage" />
        <dc:title></dc:title>
      </cc:Work>
    </rdf:RDF>
  </metadata>
  <g
     inkscape:label="Layer 1"
     inkscape:groupmode="layer"
     id="layer1">
    <path
       id="rect835"
       style="fill:#ffffff;fill-opacity:1;stroke:none;stroke-width:2;stroke-miterlimit:4;stroke-dasharray:none;stroke-opacity:1"
       d="M 8 9 C 6.8919998 9 6 9.8920001 6 11 L 6 19 C 6 20.108 6.8919998 21 8 21 L 20 21 C 21.108 21 22 20.108 22 19 L 22 11 C 22 9.8920001 21.108 9 20 9 L 8 9 z M 13.949219 10.5 A 2.9999997 2.9999999 0 0 1 14 10.5 A 2.9999997 2.9999999 0 0 1 17 13.5 A 2.9999997 2.9999999 0 0 1 15.25 16.226562 L 15.25 19.5 L 12.75 19.5 L 12.75 16.226562 A 2.9999997 2.9999999 0 0 1 11 13.5 A 2.9999997 2.9999999 0 0 1 13.949219 10.5 z "
       transform="scale(0.26458334)" />
    <path
       id="rect841"
       style="fill:none;fill-opacity:1;stroke:#ffffff;stroke-width:2;stroke-miterlimit:4;stroke-dasharray:none;stroke-opacity:1"
       d="M 11,8 V 10 5 C 11,3.338 9.662,2 8,2 H 4 C 2.3380001,2 1,3.338 1,5 l -1e-8,3.9999999"
       transform="scale(0.26458334)"
       sodipodi:nodetypes="ccssssc" />
  </g>
</svg>
